<svg id="visual" viewBox="0 0 675 900" width="675" height="900" xmlns="http://www.w3.org/2000/svg" xmlns:xlink="http://www.w3.org/1999/xlink" version="1.1"><rect x="0" y="0" width="675" height="900" fill="#F1EAFA"></rect><path d="M0 681L9.3 675.2C18.7 669.3 37.3 657.7 56.2 656.3C75 655 94 664 112.8 656C131.7 648 150.3 623 169 598.8C187.7 574.7 206.3 551.3 225 528.3C243.7 505.3 262.3 482.7 281.2 479.2C300 475.7 319 491.3 337.8 492.3C356.7 493.3 375.3 479.7 394 492.8C412.7 506 431.3 546 450 546C468.7 546 487.3 506 506.2 495C525 484 544 502 562.8 514.8C581.7 527.7 600.3 535.3 619 529.8C637.7 524.3 656.3 505.7 665.7 496.3L675 487L675 901L665.7 901C656.3 901 637.7 901 619 901C600.3 901 581.7 901 562.8 901C544 901 525 901 506.2 901C487.3 901 468.7 901 450 901C431.3 901 412.7 901 394 901C375.3 901 356.7 901 337.8 901C319 901 300 901 281.2 901C262.3 901 243.7 901 225 901C206.3 901 187.7 901 169 901C150.3 901 131.7 901 112.8 901C94 901 75 901 56.2 901C37.3 901 18.7 901 9.3 901L0 901Z" fill="#d6baf8"></path><path d="M0 542L9.3 562.7C18.7 583.3 37.3 624.7 56.2 637.7C75 650.7 94 635.3 112.8 626.5C131.7 617.7 150.3 615.3 169 617.3C187.7 619.3 206.3 625.7 225 622C243.7 618.3 262.3 604.7 281.2 582.7C300 560.7 319 530.3 337.8 521.5C356.7 512.7 375.3 525.3 394 529.7C412.7 534 431.3 530 450 549.3C468.7 568.7 487.3 611.3 506.2 608.7C525 606 544 558 562.8 553.3C581.7 548.7 600.3 587.3 619 611C637.7 634.7 656.3 643.3 665.7 647.7L675 652L675 901L665.7 901C656.3 901 637.7 901 619 901C600.3 901 581.7 901 562.8 901C544 901 525 901 506.2 901C487.3 901 468.7 901 450 901C431.3 901 412.7 901 394 901C375.3 901 356.7 901 337.8 901C319 901 300 901 281.2 901C262.3 901 243.7 901 225 901C206.3 901 187.7 901 169 901C150.3 901 131.7 901 112.8 901C94 901 75 901 56.2 901C37.3 901 18.7 901 9.3 901L0 901Z" fill="#c3a7e4"></path><path d="M0 635L9.3 636.8C18.7 638.7 37.3 642.3 56.2 644.5C75 646.7 94 647.3 112.8 650.3C131.7 653.3 150.3 658.7 169 649.5C187.7 640.3 206.3 616.7 225 598.5C243.7 580.3 262.3 567.7 281.2 580.7C300 593.7 319 632.3 337.8 640C356.7 647.7 375.3 624.3 394 629.8C412.7 635.3 431.3 669.7 450 671.7C468.7 673.7 487.3 643.3 506.2 634.5C525 625.7 544 638.3 562.8 646.3C581.7 654.3 600.3 657.7 619 643.3C637.7 629 656.3 597 665.7 581L675 565L675 901L665.7 901C656.3 901 637.7 901 619 901C600.3 901 581.7 901 562.8 901C544 901 525 901 506.2 901C487.3 901 468.7 901 450 901C431.3 901 412.7 901 394 901C375.3 901 356.7 901 337.8 901C319 901 300 901 281.2 901C262.3 901 243.7 901 225 901C206.3 901 187.7 901 169 901C150.3 901 131.7 901 112.8 901C94 901 75 901 56.2 901C37.3 901 18.7 901 9.3 901L0 901Z" fill="#b095d1"></path><path d="M0 627L9.3 637.3C18.7 647.7 37.3 668.3 56.2 661C75 653.7 94 618.3 112.8 616.8C131.7 615.3 150.3 647.7 169 648C187.7 648.3 206.3 616.7 225 622C243.7 627.3 262.3 669.7 281.2 691C300 712.3 319 712.7 337.8 710.8C356.7 709 375.3 705 394 701.2C412.7 697.3 431.3 693.7 450 697.7C468.7 701.7 487.3 713.3 506.2 707.2C525 701 544 677 562.8 663C581.7 649 600.3 645 619 647.5C637.7 650 656.3 659 665.7 663.5L675 668L675 901L665.7 901C656.3 901 637.7 901 619 901C600.3 901 581.7 901 562.8 901C544 901 525 901 506.2 901C487.3 901 468.7 901 450 901C431.3 901 412.7 901 394 901C375.3 901 356.7 901 337.8 901C319 901 300 901 281.2 901C262.3 901 243.7 901 225 901C206.3 901 187.7 901 169 901C150.3 901 131.7 901 112.8 901C94 901 75 901 56.2 901C37.3 901 18.7 901 9.3 901L0 901Z" fill="#9d83be"></path><path d="M0 677L9.3 671.3C18.7 665.7 37.3 654.3 56.2 650.3C75 646.3 94 649.7 112.8 665.7C131.7 681.7 150.3 710.3 169 716.7C187.7 723 206.3 707 225 690.2C243.7 673.3 262.3 655.7 281.2 669.7C300 683.7 319 729.3 337.8 737.5C356.7 745.7 375.3 716.3 394 699.3C412.7 682.3 431.3 677.7 450 675.3C468.7 673 487.3 673 506.2 676.8C525 680.7 544 688.3 562.8 705C581.7 721.7 600.3 747.3 619 758.2C637.7 769 656.3 765 665.7 763L675 761L675 901L665.7 901C656.3 901 637.7 901 619 901C600.3 901 581.7 901 562.8 901C544 901 525 901 506.2 901C487.3 901 468.7 901 450 901C431.3 901 412.7 901 394 901C375.3 901 356.7 901 337.8 901C319 901 300 901 281.2 901C262.3 901 243.7 901 225 901C206.3 901 187.7 901 169 901C150.3 901 131.7 901 112.8 901C94 901 75 901 56.2 901C37.3 901 18.7 901 9.3 901L0 901Z" fill="#8b71ab"></path><path d="M0 760L9.3 759.7C18.7 759.3 37.3 758.7 56.2 750.7C75 742.7 94 727.3 112.8 719.8C131.7 712.3 150.3 712.7 169 723.5C187.7 734.3 206.3 755.7 225 753.2C243.7 750.7 262.3 724.3 281.2 724.3C300 724.3 319 750.7 337.8 758.2C356.7 765.7 375.3 754.3 394 757.3C412.7 760.3 431.3 777.7 450 776C468.7 774.3 487.3 753.7 506.2 749.3C525 745 544 757 562.8 749.5C581.7 742 600.3 715 619 709.8C637.7 704.7 656.3 721.3 665.7 729.7L675 738L675 901L665.7 901C656.3 901 637.7 901 619 901C600.3 901 581.7 901 562.8 901C544 901 525 901 506.2 901C487.3 901 468.7 901 450 901C431.3 901 412.7 901 394 901C375.3 901 356.7 901 337.8 901C319 901 300 901 281.2 901C262.3 901 243.7 901 225 901C206.3 901 187.7 901 169 901C150.3 901 131.7 901 112.8 901C94 901 75 901 56.2 901C37.3 901 18.7 901 9.3 901L0 901Z" fill="#796098"></path><path d="M0 810L9.3 805C18.7 800 37.3 790 56.2 776.5C75 763 94 746 112.8 747.7C131.7 749.3 150.3 769.7 169 777.7C187.7 785.7 206.3 781.3 225 786C243.7 790.7 262.3 804.3 281.2 800.5C300 796.7 319 775.3 337.8 775.8C356.7 776.3 375.3 798.7 394 797.7C412.7 796.7 431.3 772.3 450 766.8C468.7 761.3 487.3 774.7 506.2 782.5C525 790.3 544 792.7 562.8 790.8C581.7 789 600.3 783 619 782.3C637.7 781.7 656.3 786.3 665.7 788.7L675 791L675 901L665.7 901C656.3 901 637.7 901 619 901C600.3 901 581.7 901 562.8 901C544 901 525 901 506.2 901C487.3 901 468.7 901 450 901C431.3 901 412.7 901 394 901C375.3 901 356.7 901 337.8 901C319 901 300 901 281.2 901C262.3 901 243.7 901 225 901C206.3 901 187.7 901 169 901C150.3 901 131.7 901 112.8 901C94 901 75 901 56.2 901C37.3 901 18.7 901 9.3 901L0 901Z" fill="#684f86"></path><path d="M0 769L9.3 768.8C18.7 768.7 37.3 768.3 56.2 774.3C75 780.3 94 792.7 112.8 805.2C131.7 817.7 150.3 830.3 169 836.2C187.7 842 206.3 841 225 828.7C243.7 816.3 262.3 792.7 281.2 787C300 781.3 319 793.7 337.8 806.7C356.7 819.7 375.3 833.3 394 831.3C412.7 829.3 431.3 811.7 450 811.7C468.7 811.7 487.3 829.3 506.2 829.2C525 829 544 811 562.8 807.8C581.7 804.7 600.3 816.3 619 814.7C637.7 813 656.3 798 665.7 790.5L675 783L675 901L665.7 901C656.3 901 637.7 901 619 901C600.3 901 581.7 901 562.8 901C544 901 525 901 506.2 901C487.3 901 468.7 901 450 901C431.3 901 412.7 901 394 901C375.3 901 356.7 901 337.8 901C319 901 300 901 281.2 901C262.3 901 243.7 901 225 901C206.3 901 187.7 901 169 901C150.3 901 131.7 901 112.8 901C94 901 75 901 56.2 901C37.3 901 18.7 901 9.3 901L0 901Z" fill="#573f74"></path><path d="M0 832L9.3 834.5C18.7 837 37.3 842 56.2 843.8C75 845.7 94 844.3 112.8 841.3C131.7 838.3 150.3 833.7 169 832.3C187.7 831 206.3 833 225 840.3C243.7 847.7 262.3 860.3 281.2 861.7C300 863 319 853 337.8 849.7C356.7 846.3 375.3 849.7 394 852.2C412.7 854.7 431.3 856.3 450 857.7C468.7 859 487.3 860 506.2 859.5C525 859 544 857 562.8 858.7C581.7 860.3 600.3 865.7 619 868.3C637.7 871 656.3 871 665.7 871L675 871L675 901L665.7 901C656.3 901 637.7 901 619 901C600.3 901 581.7 901 562.8 901C544 901 525 901 506.2 901C487.3 901 468.7 901 450 901C431.3 901 412.7 901 394 901C375.3 901 356.7 901 337.8 901C319 901 300 901 281.2 901C262.3 901 243.7 901 225 901C206.3 901 187.7 901 169 901C150.3 901 131.7 901 112.8 901C94 901 75 901 56.2 901C37.3 901 18.7 901 9.3 901L0 901Z" fill="#462f63"></path></svg>