<svg id="visual" viewBox="0 0 900 675" width="900" height="675" xmlns="http://www.w3.org/2000/svg" xmlns:xlink="http://www.w3.org/1999/xlink" version="1.1"><rect x="0" y="0" width="900" height="675" fill="#F1EAFA"></rect><path d="M0 336L12.5 338C25 340 50 344 75 345C100 346 125 344 150 366.7C175 389.3 200 436.7 225 449.3C250 462 275 440 300 422.8C325 405.7 350 393.3 375 394.2C400 395 425 409 450 413.7C475 418.3 500 413.7 525 406C550 398.3 575 387.7 600 375.3C625 363 650 349 675 347.7C700 346.3 725 357.7 750 380.7C775 403.7 800 438.3 825 438.5C850 438.7 875 404.3 887.5 387.2L900 370L900 676L887.5 676C875 676 850 676 825 676C800 676 775 676 750 676C725 676 700 676 675 676C650 676 625 676 600 676C575 676 550 676 525 676C500 676 475 676 450 676C425 676 400 676 375 676C350 676 325 676 300 676C275 676 250 676 225 676C200 676 175 676 150 676C125 676 100 676 75 676C50 676 25 676 12.5 676L0 676Z" fill="#d6baf8"></path><path d="M0 460L12.5 468.2C25 476.3 50 492.7 75 482.3C100 472 125 435 150 435.3C175 435.7 200 473.3 225 495.5C250 517.7 275 524.3 300 524C325 523.7 350 516.3 375 505.2C400 494 425 479 450 470.7C475 462.3 500 460.7 525 469C550 477.3 575 495.7 600 485.8C625 476 650 438 675 429C700 420 725 440 750 449C775 458 800 456 825 452.5C850 449 875 444 887.5 441.5L900 439L900 676L887.5 676C875 676 850 676 825 676C800 676 775 676 750 676C725 676 700 676 675 676C650 676 625 676 600 676C575 676 550 676 525 676C500 676 475 676 450 676C425 676 400 676 375 676C350 676 325 676 300 676C275 676 250 676 225 676C200 676 175 676 150 676C125 676 100 676 75 676C50 676 25 676 12.5 676L0 676Z" fill="#c3a7e4"></path><path d="M0 434L12.5 432.8C25 431.7 50 429.3 75 445.8C100 462.3 125 497.7 150 511.8C175 526 200 519 225 507.7C250 496.3 275 480.7 300 475.7C325 470.7 350 476.3 375 467.3C400 458.3 425 434.7 450 442.7C475 450.7 500 490.3 525 506.7C550 523 575 516 600 500C625 484 650 459 675 465.8C700 472.7 725 511.3 750 519.5C775 527.7 800 505.3 825 492.2C850 479 875 475 887.5 473L900 471L900 676L887.5 676C875 676 850 676 825 676C800 676 775 676 750 676C725 676 700 676 675 676C650 676 625 676 600 676C575 676 550 676 525 676C500 676 475 676 450 676C425 676 400 676 375 676C350 676 325 676 300 676C275 676 250 676 225 676C200 676 175 676 150 676C125 676 100 676 75 676C50 676 25 676 12.5 676L0 676Z" fill="#b095d1"></path><path d="M0 485L12.5 496.5C25 508 50 531 75 528.2C100 525.3 125 496.7 150 478.7C175 460.7 200 453.3 225 468.8C250 484.3 275 522.7 300 541C325 559.3 350 557.7 375 542.8C400 528 425 500 450 495C475 490 500 508 525 506.8C550 505.7 575 485.3 600 476.5C625 467.7 650 470.3 675 470C700 469.7 725 466.3 750 469C775 471.7 800 480.3 825 494.2C850 508 875 527 887.5 536.5L900 546L900 676L887.5 676C875 676 850 676 825 676C800 676 775 676 750 676C725 676 700 676 675 676C650 676 625 676 600 676C575 676 550 676 525 676C500 676 475 676 450 676C425 676 400 676 375 676C350 676 325 676 300 676C275 676 250 676 225 676C200 676 175 676 150 676C125 676 100 676 75 676C50 676 25 676 12.5 676L0 676Z" fill="#9d83be"></path><path d="M0 507L12.5 519.8C25 532.7 50 558.3 75 554.3C100 550.3 125 516.7 150 499.7C175 482.7 200 482.3 225 484C250 485.7 275 489.3 300 498.5C325 507.7 350 522.3 375 531.7C400 541 425 545 450 542C475 539 500 529 525 515.8C550 502.7 575 486.3 600 485.7C625 485 650 500 675 503C700 506 725 497 750 490.7C775 484.3 800 480.7 825 489.2C850 497.7 875 518.3 887.5 528.7L900 539L900 676L887.5 676C875 676 850 676 825 676C800 676 775 676 750 676C725 676 700 676 675 676C650 676 625 676 600 676C575 676 550 676 525 676C500 676 475 676 450 676C425 676 400 676 375 676C350 676 325 676 300 676C275 676 250 676 225 676C200 676 175 676 150 676C125 676 100 676 75 676C50 676 25 676 12.5 676L0 676Z" fill="#8b71ab"></path><path d="M0 539L12.5 537.2C25 535.3 50 531.7 75 538.2C100 544.7 125 561.3 150 559C175 556.7 200 535.3 225 528C250 520.7 275 527.3 300 528.5C325 529.7 350 525.3 375 521.3C400 517.3 425 513.7 450 524.8C475 536 500 562 525 572C550 582 575 576 600 562.3C625 548.7 650 527.3 675 524C700 520.7 725 535.3 750 548C775 560.7 800 571.3 825 575.7C850 580 875 578 887.5 577L900 576L900 676L887.5 676C875 676 850 676 825 676C800 676 775 676 750 676C725 676 700 676 675 676C650 676 625 676 600 676C575 676 550 676 525 676C500 676 475 676 450 676C425 676 400 676 375 676C350 676 325 676 300 676C275 676 250 676 225 676C200 676 175 676 150 676C125 676 100 676 75 676C50 676 25 676 12.5 676L0 676Z" fill="#796098"></path><path d="M0 567L12.5 575C25 583 50 599 75 595.8C100 592.7 125 570.3 150 568.5C175 566.7 200 585.3 225 584.2C250 583 275 562 300 563.7C325 565.3 350 589.7 375 591.2C400 592.7 425 571.3 450 560.7C475 550 500 550 525 558.7C550 567.3 575 584.7 600 588.2C625 591.7 650 581.3 675 583.7C700 586 725 601 750 598.8C775 596.7 800 577.3 825 569.5C850 561.7 875 565.3 887.5 567.2L900 569L900 676L887.5 676C875 676 850 676 825 676C800 676 775 676 750 676C725 676 700 676 675 676C650 676 625 676 600 676C575 676 550 676 525 676C500 676 475 676 450 676C425 676 400 676 375 676C350 676 325 676 300 676C275 676 250 676 225 676C200 676 175 676 150 676C125 676 100 676 75 676C50 676 25 676 12.5 676L0 676Z" fill="#684f86"></path><path d="M0 598L12.5 596.8C25 595.7 50 593.3 75 593.5C100 593.7 125 596.3 150 593.8C175 591.3 200 583.7 225 588.8C250 594 275 612 300 617C325 622 350 614 375 605.8C400 597.7 425 589.3 450 591.2C475 593 500 605 525 613C550 621 575 625 600 623.5C625 622 650 615 675 612C700 609 725 610 750 614.2C775 618.3 800 625.7 825 622.2C850 618.7 875 604.3 887.5 597.2L900 590L900 676L887.5 676C875 676 850 676 825 676C800 676 775 676 750 676C725 676 700 676 675 676C650 676 625 676 600 676C575 676 550 676 525 676C500 676 475 676 450 676C425 676 400 676 375 676C350 676 325 676 300 676C275 676 250 676 225 676C200 676 175 676 150 676C125 676 100 676 75 676C50 676 25 676 12.5 676L0 676Z" fill="#573f74"></path><path d="M0 637L12.5 638.3C25 639.7 50 642.3 75 643.2C100 644 125 643 150 644.2C175 645.3 200 648.7 225 648.5C250 648.3 275 644.7 300 639C325 633.3 350 625.7 375 626.7C400 627.7 425 637.3 450 637.8C475 638.3 500 629.7 525 625.7C550 621.7 575 622.3 600 626C625 629.7 650 636.3 675 638.2C700 640 725 637 750 631.7C775 626.3 800 618.7 825 616.2C850 613.7 875 616.3 887.5 617.7L900 619L900 676L887.5 676C875 676 850 676 825 676C800 676 775 676 750 676C725 676 700 676 675 676C650 676 625 676 600 676C575 676 550 676 525 676C500 676 475 676 450 676C425 676 400 676 375 676C350 676 325 676 300 676C275 676 250 676 225 676C200 676 175 676 150 676C125 676 100 676 75 676C50 676 25 676 12.5 676L0 676Z" fill="#462f63"></path></svg>