<svg id="visual" viewBox="0 0 960 540" width="960" height="540" xmlns="http://www.w3.org/2000/svg" xmlns:xlink="http://www.w3.org/1999/xlink" version="1.1"><rect x="0" y="0" width="960" height="540" fill="#F1EAFA"></rect><path d="M0 326L9.3 333.7C18.7 341.3 37.3 356.7 56.2 367.3C75 378 94 384 112.8 376.3C131.7 368.7 150.3 347.3 169.2 346.3C188 345.3 207 364.7 225.8 363.8C244.7 363 263.3 342 282.2 330.7C301 319.3 320 317.7 338.8 325C357.7 332.3 376.3 348.7 395.2 358.5C414 368.3 433 371.7 451.8 376C470.7 380.3 489.3 385.7 508.2 383.7C527 381.7 546 372.3 564.8 362.7C583.7 353 602.3 343 621.2 345.5C640 348 659 363 677.8 370.2C696.7 377.3 715.3 376.7 734.2 378.5C753 380.3 772 384.7 790.8 387C809.7 389.3 828.3 389.7 847.2 383.5C866 377.3 885 364.7 903.8 364C922.7 363.3 941.3 374.7 950.7 380.3L960 386L960 541L950.7 541C941.3 541 922.7 541 903.8 541C885 541 866 541 847.2 541C828.3 541 809.7 541 790.8 541C772 541 753 541 734.2 541C715.3 541 696.7 541 677.8 541C659 541 640 541 621.2 541C602.3 541 583.7 541 564.8 541C546 541 527 541 508.2 541C489.3 541 470.7 541 451.8 541C433 541 414 541 395.2 541C376.3 541 357.7 541 338.8 541C320 541 301 541 282.2 541C263.3 541 244.7 541 225.8 541C207 541 188 541 169.2 541C150.3 541 131.7 541 112.8 541C94 541 75 541 56.2 541C37.3 541 18.7 541 9.3 541L0 541Z" fill="#d6baf8"></path><path d="M0 356L9.3 357.2C18.7 358.3 37.3 360.7 56.2 358.2C75 355.7 94 348.3 112.8 347C131.7 345.7 150.3 350.3 169.2 352.8C188 355.3 207 355.7 225.8 355.7C244.7 355.7 263.3 355.3 282.2 357.2C301 359 320 363 338.8 369.5C357.7 376 376.3 385 395.2 384.3C414 383.7 433 373.3 451.8 370C470.7 366.7 489.3 370.3 508.2 373.3C527 376.3 546 378.7 564.8 381C583.7 383.3 602.3 385.7 621.2 389C640 392.3 659 396.7 677.8 392.2C696.7 387.7 715.3 374.3 734.2 371.2C753 368 772 375 790.8 377.7C809.7 380.3 828.3 378.7 847.2 375C866 371.3 885 365.7 903.8 361.5C922.7 357.3 941.3 354.7 950.7 353.3L960 352L960 541L950.7 541C941.3 541 922.7 541 903.8 541C885 541 866 541 847.2 541C828.3 541 809.7 541 790.8 541C772 541 753 541 734.2 541C715.3 541 696.7 541 677.8 541C659 541 640 541 621.2 541C602.3 541 583.7 541 564.8 541C546 541 527 541 508.2 541C489.3 541 470.7 541 451.8 541C433 541 414 541 395.2 541C376.3 541 357.7 541 338.8 541C320 541 301 541 282.2 541C263.3 541 244.7 541 225.8 541C207 541 188 541 169.2 541C150.3 541 131.7 541 112.8 541C94 541 75 541 56.2 541C37.3 541 18.7 541 9.3 541L0 541Z" fill="#c0a5e1"></path><path d="M0 399L9.3 396.3C18.7 393.7 37.3 388.3 56.2 389.3C75 390.3 94 397.7 112.8 403.3C131.7 409 150.3 413 169.2 413.5C188 414 207 411 225.8 411.8C244.7 412.7 263.3 417.3 282.2 413.2C301 409 320 396 338.8 397.3C357.7 398.7 376.3 414.3 395.2 412.2C414 410 433 390 451.8 388.8C470.7 387.7 489.3 405.3 508.2 411.7C527 418 546 413 564.8 408.8C583.7 404.7 602.3 401.3 621.2 404.5C640 407.7 659 417.3 677.8 420.5C696.7 423.7 715.3 420.3 734.2 411.3C753 402.3 772 387.7 790.8 385.5C809.7 383.3 828.3 393.7 847.2 402.2C866 410.7 885 417.3 903.8 415.2C922.7 413 941.3 402 950.7 396.5L960 391L960 541L950.7 541C941.3 541 922.7 541 903.8 541C885 541 866 541 847.2 541C828.3 541 809.7 541 790.8 541C772 541 753 541 734.2 541C715.3 541 696.7 541 677.8 541C659 541 640 541 621.2 541C602.3 541 583.7 541 564.8 541C546 541 527 541 508.2 541C489.3 541 470.7 541 451.8 541C433 541 414 541 395.2 541C376.3 541 357.7 541 338.8 541C320 541 301 541 282.2 541C263.3 541 244.7 541 225.8 541C207 541 188 541 169.2 541C150.3 541 131.7 541 112.8 541C94 541 75 541 56.2 541C37.3 541 18.7 541 9.3 541L0 541Z" fill="#aa90cb"></path><path d="M0 419L9.3 417.3C18.7 415.7 37.3 412.3 56.2 413C75 413.7 94 418.3 112.8 418.7C131.7 419 150.3 415 169.2 416.5C188 418 207 425 225.8 429C244.7 433 263.3 434 282.2 428C301 422 320 409 338.8 401.5C357.7 394 376.3 392 395.2 394.7C414 397.3 433 404.7 451.8 406.3C470.7 408 489.3 404 508.2 410C527 416 546 432 564.8 434.2C583.7 436.3 602.3 424.7 621.2 423C640 421.3 659 429.7 677.8 433.3C696.7 437 715.3 436 734.2 429.7C753 423.3 772 411.7 790.8 413.7C809.7 415.7 828.3 431.3 847.2 437.2C866 443 885 439 903.8 437C922.7 435 941.3 435 950.7 435L960 435L960 541L950.7 541C941.3 541 922.7 541 903.8 541C885 541 866 541 847.2 541C828.3 541 809.7 541 790.8 541C772 541 753 541 734.2 541C715.3 541 696.7 541 677.8 541C659 541 640 541 621.2 541C602.3 541 583.7 541 564.8 541C546 541 527 541 508.2 541C489.3 541 470.7 541 451.8 541C433 541 414 541 395.2 541C376.3 541 357.7 541 338.8 541C320 541 301 541 282.2 541C263.3 541 244.7 541 225.8 541C207 541 188 541 169.2 541C150.3 541 131.7 541 112.8 541C94 541 75 541 56.2 541C37.3 541 18.7 541 9.3 541L0 541Z" fill="#957bb6"></path><path d="M0 443L9.3 443.5C18.7 444 37.3 445 56.2 442.2C75 439.3 94 432.7 112.8 427.8C131.7 423 150.3 420 169.2 421.5C188 423 207 429 225.8 435.3C244.7 441.7 263.3 448.3 282.2 453.2C301 458 320 461 338.8 457.3C357.7 453.7 376.3 443.3 395.2 440.2C414 437 433 441 451.8 446.7C470.7 452.3 489.3 459.7 508.2 457C527 454.3 546 441.7 564.8 441.3C583.7 441 602.3 453 621.2 455.2C640 457.3 659 449.7 677.8 443.5C696.7 437.3 715.3 432.7 734.2 435.8C753 439 772 450 790.8 454.3C809.7 458.7 828.3 456.3 847.2 450C866 443.7 885 433.3 903.8 430.7C922.7 428 941.3 433 950.7 435.5L960 438L960 541L950.7 541C941.3 541 922.7 541 903.8 541C885 541 866 541 847.2 541C828.3 541 809.7 541 790.8 541C772 541 753 541 734.2 541C715.3 541 696.7 541 677.8 541C659 541 640 541 621.2 541C602.3 541 583.7 541 564.8 541C546 541 527 541 508.2 541C489.3 541 470.7 541 451.8 541C433 541 414 541 395.2 541C376.3 541 357.7 541 338.8 541C320 541 301 541 282.2 541C263.3 541 244.7 541 225.8 541C207 541 188 541 169.2 541C150.3 541 131.7 541 112.8 541C94 541 75 541 56.2 541C37.3 541 18.7 541 9.3 541L0 541Z" fill="#8167a0"></path><path d="M0 447L9.3 452.5C18.7 458 37.3 469 56.2 468.8C75 468.7 94 457.3 112.8 452.3C131.7 447.3 150.3 448.7 169.2 450.8C188 453 207 456 225.8 459.5C244.7 463 263.3 467 282.2 467.8C301 468.7 320 466.3 338.8 464.5C357.7 462.7 376.3 461.3 395.2 463.7C414 466 433 472 451.8 470.5C470.7 469 489.3 460 508.2 458.5C527 457 546 463 564.8 467.8C583.7 472.7 602.3 476.3 621.2 473.3C640 470.3 659 460.7 677.8 460.2C696.7 459.7 715.3 468.3 734.2 467.3C753 466.3 772 455.7 790.8 450.3C809.7 445 828.3 445 847.2 447.5C866 450 885 455 903.8 459.2C922.7 463.3 941.3 466.7 950.7 468.3L960 470L960 541L950.7 541C941.3 541 922.7 541 903.8 541C885 541 866 541 847.2 541C828.3 541 809.7 541 790.8 541C772 541 753 541 734.2 541C715.3 541 696.7 541 677.8 541C659 541 640 541 621.2 541C602.3 541 583.7 541 564.8 541C546 541 527 541 508.2 541C489.3 541 470.7 541 451.8 541C433 541 414 541 395.2 541C376.3 541 357.7 541 338.8 541C320 541 301 541 282.2 541C263.3 541 244.7 541 225.8 541C207 541 188 541 169.2 541C150.3 541 131.7 541 112.8 541C94 541 75 541 56.2 541C37.3 541 18.7 541 9.3 541L0 541Z" fill="#6d548b"></path><path d="M0 496L9.3 495.5C18.7 495 37.3 494 56.2 491.5C75 489 94 485 112.8 486.5C131.7 488 150.3 495 169.2 494.3C188 493.7 207 485.3 225.8 481.3C244.7 477.3 263.3 477.7 282.2 480C301 482.3 320 486.7 338.8 488.7C357.7 490.7 376.3 490.3 395.2 487.8C414 485.3 433 480.7 451.8 478.5C470.7 476.3 489.3 476.7 508.2 475.8C527 475 546 473 564.8 476.3C583.7 479.7 602.3 488.3 621.2 491.5C640 494.7 659 492.3 677.8 490C696.7 487.7 715.3 485.3 734.2 486.7C753 488 772 493 790.8 494.7C809.7 496.3 828.3 494.7 847.2 491.2C866 487.7 885 482.3 903.8 481.2C922.7 480 941.3 483 950.7 484.5L960 486L960 541L950.7 541C941.3 541 922.7 541 903.8 541C885 541 866 541 847.2 541C828.3 541 809.7 541 790.8 541C772 541 753 541 734.2 541C715.3 541 696.7 541 677.8 541C659 541 640 541 621.2 541C602.3 541 583.7 541 564.8 541C546 541 527 541 508.2 541C489.3 541 470.7 541 451.8 541C433 541 414 541 395.2 541C376.3 541 357.7 541 338.8 541C320 541 301 541 282.2 541C263.3 541 244.7 541 225.8 541C207 541 188 541 169.2 541C150.3 541 131.7 541 112.8 541C94 541 75 541 56.2 541C37.3 541 18.7 541 9.3 541L0 541Z" fill="#594177"></path><path d="M0 495L9.3 498C18.7 501 37.3 507 56.2 511.2C75 515.3 94 517.7 112.8 515.2C131.7 512.7 150.3 505.3 169.2 501.2C188 497 207 496 225.8 495.3C244.7 494.7 263.3 494.3 282.2 494.5C301 494.7 320 495.3 338.8 497.3C357.7 499.3 376.3 502.7 395.2 502.5C414 502.3 433 498.7 451.8 498.5C470.7 498.3 489.3 501.7 508.2 506C527 510.3 546 515.7 564.8 514.2C583.7 512.7 602.3 504.3 621.2 503.5C640 502.7 659 509.3 677.8 512.2C696.7 515 715.3 514 734.2 514.7C753 515.3 772 517.7 790.8 519.5C809.7 521.3 828.3 522.7 847.2 521.8C866 521 885 518 903.8 517.7C922.7 517.3 941.3 519.7 950.7 520.8L960 522L960 541L950.7 541C941.3 541 922.7 541 903.8 541C885 541 866 541 847.2 541C828.3 541 809.7 541 790.8 541C772 541 753 541 734.2 541C715.3 541 696.7 541 677.8 541C659 541 640 541 621.2 541C602.3 541 583.7 541 564.8 541C546 541 527 541 508.2 541C489.3 541 470.7 541 451.8 541C433 541 414 541 395.2 541C376.3 541 357.7 541 338.8 541C320 541 301 541 282.2 541C263.3 541 244.7 541 225.8 541C207 541 188 541 169.2 541C150.3 541 131.7 541 112.8 541C94 541 75 541 56.2 541C37.3 541 18.7 541 9.3 541L0 541Z" fill="#462f63"></path></svg>