<svg id="visual" viewBox="0 0 450 900" width="450" height="900" xmlns="http://www.w3.org/2000/svg" xmlns:xlink="http://www.w3.org/1999/xlink" version="1.1"><rect x="0" y="0" width="450" height="900" fill="#F1EAFA"></rect><path d="M0 544L4.3 556.7C8.7 569.3 17.3 594.7 26.2 612.3C35 630 44 640 52.8 627.2C61.7 614.3 70.3 578.7 79.2 577C88 575.3 97 607.7 105.8 606.5C114.7 605.3 123.3 570.7 132.2 551.8C141 533 150 530 158.8 542.2C167.7 554.3 176.3 581.7 185.2 598.2C194 614.7 203 620.3 211.8 627.5C220.7 634.7 229.3 643.3 238.2 639.8C247 636.3 256 620.7 264.8 604.7C273.7 588.7 282.3 572.3 291.2 576.5C300 580.7 309 605.3 317.8 617.2C326.7 629 335.3 628 344.2 631C353 634 362 641 370.8 644.8C379.7 648.7 388.3 649.3 397.2 639.2C406 629 415 608 423.8 607C432.7 606 441.3 625 445.7 634.5L450 644L450 901L445.7 901C441.3 901 432.7 901 423.8 901C415 901 406 901 397.2 901C388.3 901 379.7 901 370.8 901C362 901 353 901 344.2 901C335.3 901 326.7 901 317.8 901C309 901 300 901 291.2 901C282.3 901 273.7 901 264.8 901C256 901 247 901 238.2 901C229.3 901 220.7 901 211.8 901C203 901 194 901 185.2 901C176.3 901 167.7 901 158.8 901C150 901 141 901 132.2 901C123.3 901 114.7 901 105.8 901C97 901 88 901 79.2 901C70.3 901 61.7 901 52.8 901C44 901 35 901 26.2 901C17.3 901 8.7 901 4.3 901L0 901Z" fill="#d6baf8"></path><path d="M0 594L4.3 596C8.7 598 17.3 602 26.2 597.8C35 593.7 44 581.3 52.8 579C61.7 576.7 70.3 584.3 79.2 588.5C88 592.7 97 593.3 105.8 593.3C114.7 593.3 123.3 592.7 132.2 595.7C141 598.7 150 605.3 158.8 616.2C167.7 627 176.3 642 185.2 640.8C194 639.7 203 622.3 211.8 616.7C220.7 611 229.3 617 238.2 622.2C247 627.3 256 631.7 264.8 635.7C273.7 639.7 282.3 643.3 291.2 648.7C300 654 309 661 317.8 653.7C326.7 646.3 335.3 624.7 344.2 619.5C353 614.3 362 625.7 370.8 630C379.7 634.3 388.3 631.7 397.2 625.5C406 619.3 415 609.7 423.8 602.8C432.7 596 441.3 592 445.7 590L450 588L450 901L445.7 901C441.3 901 432.7 901 423.8 901C415 901 406 901 397.2 901C388.3 901 379.7 901 370.8 901C362 901 353 901 344.2 901C335.3 901 326.7 901 317.8 901C309 901 300 901 291.2 901C282.3 901 273.7 901 264.8 901C256 901 247 901 238.2 901C229.3 901 220.7 901 211.8 901C203 901 194 901 185.2 901C176.3 901 167.7 901 158.8 901C150 901 141 901 132.2 901C123.3 901 114.7 901 105.8 901C97 901 88 901 79.2 901C70.3 901 61.7 901 52.8 901C44 901 35 901 26.2 901C17.3 901 8.7 901 4.3 901L0 901Z" fill="#c0a5e1"></path><path d="M0 666L4.3 661.5C8.7 657 17.3 648 26.2 649.5C35 651 44 663 52.8 672.5C61.7 682 70.3 689 79.2 689.8C88 690.7 97 685.3 105.8 686.7C114.7 688 123.3 696 132.2 689.2C141 682.3 150 660.7 158.8 662.8C167.7 665 176.3 691 185.2 687.5C194 684 203 651 211.8 649.2C220.7 647.3 229.3 676.7 238.2 687C247 697.3 256 688.7 264.8 681.7C273.7 674.7 282.3 669.3 291.2 674.8C300 680.3 309 696.7 317.8 701.8C326.7 707 335.3 701 344.2 686C353 671 362 647 370.8 643.5C379.7 640 388.3 657 397.2 671.2C406 685.3 415 696.7 423.8 693C432.7 689.3 441.3 670.7 445.7 661.3L450 652L450 901L445.7 901C441.3 901 432.7 901 423.8 901C415 901 406 901 397.2 901C388.3 901 379.7 901 370.8 901C362 901 353 901 344.2 901C335.3 901 326.7 901 317.8 901C309 901 300 901 291.2 901C282.3 901 273.7 901 264.8 901C256 901 247 901 238.2 901C229.3 901 220.7 901 211.8 901C203 901 194 901 185.2 901C176.3 901 167.7 901 158.8 901C150 901 141 901 132.2 901C123.3 901 114.7 901 105.8 901C97 901 88 901 79.2 901C70.3 901 61.7 901 52.8 901C44 901 35 901 26.2 901C17.3 901 8.7 901 4.3 901L0 901Z" fill="#aa90cb"></path><path d="M0 698L4.3 695.3C8.7 692.7 17.3 687.3 26.2 688.5C35 689.7 44 697.3 52.8 698C61.7 698.7 70.3 692.3 79.2 695C88 697.7 97 709.3 105.8 716C114.7 722.7 123.3 724.3 132.2 714.2C141 704 150 682 158.8 669.5C167.7 657 176.3 654 185.2 658.5C194 663 203 675 211.8 677.7C220.7 680.3 229.3 673.7 238.2 683.7C247 693.7 256 720.3 264.8 723.8C273.7 727.3 282.3 707.7 291.2 705C300 702.3 309 716.7 317.8 723C326.7 729.3 335.3 727.7 344.2 717C353 706.3 362 686.7 370.8 689.8C379.7 693 388.3 719 397.2 728.7C406 738.3 415 731.7 423.8 728.5C432.7 725.3 441.3 725.7 445.7 725.8L450 726L450 901L445.7 901C441.3 901 432.7 901 423.8 901C415 901 406 901 397.2 901C388.3 901 379.7 901 370.8 901C362 901 353 901 344.2 901C335.3 901 326.7 901 317.8 901C309 901 300 901 291.2 901C282.3 901 273.7 901 264.8 901C256 901 247 901 238.2 901C229.3 901 220.7 901 211.8 901C203 901 194 901 185.2 901C176.3 901 167.7 901 158.8 901C150 901 141 901 132.2 901C123.3 901 114.7 901 105.8 901C97 901 88 901 79.2 901C70.3 901 61.7 901 52.8 901C44 901 35 901 26.2 901C17.3 901 8.7 901 4.3 901L0 901Z" fill="#957bb6"></path><path d="M0 739L4.3 739.8C8.7 740.7 17.3 742.3 26.2 737.7C35 733 44 722 52.8 713.8C61.7 705.7 70.3 700.3 79.2 702.8C88 705.3 97 715.7 105.8 726.5C114.7 737.3 123.3 748.7 132.2 756.8C141 765 150 770 158.8 763.8C167.7 757.7 176.3 740.3 185.2 734.8C194 729.3 203 735.7 211.8 745C220.7 754.3 229.3 766.7 238.2 762.3C247 758 256 737 264.8 736.5C273.7 736 282.3 756 291.2 759.7C300 763.3 309 750.7 317.8 740.3C326.7 730 335.3 722 344.2 727.2C353 732.3 362 750.7 370.8 758C379.7 765.3 388.3 761.7 397.2 751.2C406 740.7 415 723.3 423.8 718.8C432.7 714.3 441.3 722.7 445.7 726.8L450 731L450 901L445.7 901C441.3 901 432.7 901 423.8 901C415 901 406 901 397.2 901C388.3 901 379.7 901 370.8 901C362 901 353 901 344.2 901C335.3 901 326.7 901 317.8 901C309 901 300 901 291.2 901C282.3 901 273.7 901 264.8 901C256 901 247 901 238.2 901C229.3 901 220.7 901 211.8 901C203 901 194 901 185.2 901C176.3 901 167.7 901 158.8 901C150 901 141 901 132.2 901C123.3 901 114.7 901 105.8 901C97 901 88 901 79.2 901C70.3 901 61.7 901 52.8 901C44 901 35 901 26.2 901C17.3 901 8.7 901 4.3 901L0 901Z" fill="#8167a0"></path><path d="M0 746L4.3 755C8.7 764 17.3 782 26.2 781.8C35 781.7 44 763.3 52.8 755C61.7 746.7 70.3 748.3 79.2 751.7C88 755 97 760 105.8 766C114.7 772 123.3 779 132.2 780.3C141 781.7 150 777.3 158.8 774.2C167.7 771 176.3 769 185.2 773C194 777 203 787 211.8 784.7C220.7 782.3 229.3 767.7 238.2 765.3C247 763 256 773 264.8 780.8C273.7 788.7 282.3 794.3 291.2 789.3C300 784.3 309 768.7 317.8 768C326.7 767.3 335.3 781.7 344.2 779.8C353 778 362 760 370.8 751C379.7 742 388.3 742 397.2 746.2C406 750.3 415 758.7 423.8 765.7C432.7 772.7 441.3 778.3 445.7 781.2L450 784L450 901L445.7 901C441.3 901 432.7 901 423.8 901C415 901 406 901 397.2 901C388.3 901 379.7 901 370.8 901C362 901 353 901 344.2 901C335.3 901 326.7 901 317.8 901C309 901 300 901 291.2 901C282.3 901 273.7 901 264.8 901C256 901 247 901 238.2 901C229.3 901 220.7 901 211.8 901C203 901 194 901 185.2 901C176.3 901 167.7 901 158.8 901C150 901 141 901 132.2 901C123.3 901 114.7 901 105.8 901C97 901 88 901 79.2 901C70.3 901 61.7 901 52.8 901C44 901 35 901 26.2 901C17.3 901 8.7 901 4.3 901L0 901Z" fill="#6d548b"></path><path d="M0 828L4.3 827C8.7 826 17.3 824 26.2 819.7C35 815.3 44 808.7 52.8 811.2C61.7 813.7 70.3 825.3 79.2 824.3C88 823.3 97 809.7 105.8 803.2C114.7 796.7 123.3 797.3 132.2 801.3C141 805.3 150 812.7 158.8 815.8C167.7 819 176.3 818 185.2 813.5C194 809 203 801 211.8 797.3C220.7 793.7 229.3 794.3 238.2 793C247 791.7 256 788.3 264.8 794C273.7 799.7 282.3 814.3 291.2 819.7C300 825 309 821 317.8 817.2C326.7 813.3 335.3 809.7 344.2 811.8C353 814 362 822 370.8 824.8C379.7 827.7 388.3 825.3 397.2 819.5C406 813.7 415 804.3 423.8 802.2C432.7 800 441.3 805 445.7 807.5L450 810L450 901L445.7 901C441.3 901 432.7 901 423.8 901C415 901 406 901 397.2 901C388.3 901 379.7 901 370.8 901C362 901 353 901 344.2 901C335.3 901 326.7 901 317.8 901C309 901 300 901 291.2 901C282.3 901 273.7 901 264.8 901C256 901 247 901 238.2 901C229.3 901 220.7 901 211.8 901C203 901 194 901 185.2 901C176.3 901 167.7 901 158.8 901C150 901 141 901 132.2 901C123.3 901 114.7 901 105.8 901C97 901 88 901 79.2 901C70.3 901 61.7 901 52.8 901C44 901 35 901 26.2 901C17.3 901 8.7 901 4.3 901L0 901Z" fill="#594177"></path><path d="M0 826L4.3 830.8C8.7 835.7 17.3 845.3 26.2 852.2C35 859 44 863 52.8 858.8C61.7 854.7 70.3 842.3 79.2 835.5C88 828.7 97 827.3 105.8 826.3C114.7 825.3 123.3 824.7 132.2 825C141 825.3 150 826.7 158.8 830.2C167.7 833.7 176.3 839.3 185.2 839C194 838.7 203 832.3 211.8 831.8C220.7 831.3 229.3 836.7 238.2 844C247 851.3 256 860.7 264.8 858.2C273.7 855.7 282.3 841.3 291.2 839.8C300 838.3 309 849.7 317.8 854.5C326.7 859.3 335.3 857.7 344.2 858.7C353 859.7 362 863.3 370.8 866.2C379.7 869 388.3 871 397.2 869.8C406 868.7 415 864.3 423.8 864C432.7 863.7 441.3 867.3 445.7 869.2L450 871L450 901L445.7 901C441.3 901 432.7 901 423.8 901C415 901 406 901 397.2 901C388.3 901 379.7 901 370.8 901C362 901 353 901 344.2 901C335.3 901 326.7 901 317.8 901C309 901 300 901 291.2 901C282.3 901 273.7 901 264.8 901C256 901 247 901 238.2 901C229.3 901 220.7 901 211.8 901C203 901 194 901 185.2 901C176.3 901 167.7 901 158.8 901C150 901 141 901 132.2 901C123.3 901 114.7 901 105.8 901C97 901 88 901 79.2 901C70.3 901 61.7 901 52.8 901C44 901 35 901 26.2 901C17.3 901 8.7 901 4.3 901L0 901Z" fill="#462f63"></path></svg>